<?xml version="1.0" standalone="no"?>
<!DOCTYPE svg PUBLIC "-//W3C//DTD SVG 1.1//EN" "http://www.w3.org/Graphics/SVG/1.1/DTD/svg11.dtd" >
<svg xmlns="http://www.w3.org/2000/svg">
<metadata>Generated by IcoMoon</metadata>
<defs>
<font id="access-imobil" horiz-adv-x="1024">
<font-face units-per-em="1024" ascent="960" descent="-64" />
<missing-glyph horiz-adv-x="1024" />
<glyph unicode="&#x20;" horiz-adv-x="512" d="" />
<glyph unicode="&#xe900;" glyph-name="apartments" d="M853.333 960h-682.667c-0.726 0.047-1.575 0.073-2.429 0.073-22.263 0-40.31-18.048-40.31-40.31 0-0.855 0.027-1.703 0.079-2.545l-0.006 0.115v-938.667c-0.047-0.726-0.073-1.575-0.073-2.429 0-22.263 18.048-40.31 40.31-40.31 0.855 0 1.703 0.027 2.545 0.079l-0.115-0.006h682.667c0.726-0.047 1.575-0.073 2.429-0.073 22.263 0 40.31 18.048 40.31 40.31 0 0.855-0.027 1.703-0.079 2.545l0.006-0.115v938.667c0.047 0.726 0.073 1.575 0.073 2.429 0 22.263-18.048 40.31-40.31 40.31-0.855 0-1.703-0.027-2.545-0.079l0.115 0.006zM554.667 21.333v85.333h-85.333v-85.333h-256v853.333h597.333v-853.333zM298.667 789.333v-85.333h85.333v85.333zM469.333 789.333v-85.333h85.333v85.333zM640 789.333v-85.333h85.333v85.333zM298.667 618.667v-85.333h85.333v85.333zM469.333 618.667v-85.333h85.333v85.333zM640 618.667v-85.333h85.333v85.333zM298.667 448v-85.333h85.333v85.333zM469.333 448v-85.333h85.333v85.333zM640 448v-85.333h85.333v85.333zM298.667 277.333v-85.333h85.333v85.333zM469.333 277.333v-85.333h85.333v85.333zM640 277.333v-85.333h85.333v85.333z" />
<glyph unicode="&#xe901;" glyph-name="areas" d="M884.364 634.182h-418.909c-0.749 0.015-1.631 0.023-2.516 0.023-75.742 0-137.144-61.401-137.144-137.144 0-0.885 0.008-1.767 0.025-2.648l-0.002 0.132v-418.909c-0.015-0.749-0.023-1.631-0.023-2.516 0-75.742 61.401-137.144 137.144-137.144 0.885 0 1.767 0.008 2.648 0.025l-0.132-0.002h418.909c0.749-0.015 1.631-0.023 2.516-0.023 75.742 0 137.144 61.401 137.144 137.144 0 0.885-0.008 1.767-0.025 2.648l0.002-0.132v418.909c0.015 0.749 0.023 1.631 0.023 2.516 0 75.742-61.401 137.144-137.144 137.144-0.885 0-1.767-0.008-2.648-0.025l0.132 0.002zM930.909 75.636c0.051-0.792 0.080-1.718 0.080-2.65 0-24.287-19.688-43.975-43.975-43.975-0.932 0-1.858 0.029-2.776 0.086l0.126-0.006h-418.909c-0.792-0.051-1.718-0.080-2.65-0.080-24.287 0-43.975 19.688-43.975 43.975 0 0.932 0.029 1.858 0.086 2.776l-0.006-0.126v418.909c-0.051 0.792-0.080 1.718-0.080 2.65 0 24.287 19.688 43.975 43.975 43.975 0.932 0 1.858-0.029 2.776-0.086l-0.126 0.006h418.909c0.792 0.051 1.718 0.080 2.65 0.080 24.287 0 43.975-19.688 43.975-43.975 0-0.932-0.029-1.858-0.086-2.776l0.006 0.126zM232.727 308.363c0.051-0.792 0.080-1.718 0.080-2.65 0-24.287-19.688-43.975-43.975-43.975-0.932 0-1.858 0.029-2.776 0.086l0.126-0.006h-46.546c-0.749-0.015-1.631-0.023-2.516-0.023-75.742 0-137.144 61.401-137.144 137.144 0 0.885 0.008 1.767 0.025 2.648l-0.002-0.132v418.909c-0.015 0.749-0.023 1.631-0.023 2.516 0 75.742 61.401 137.144 137.144 137.144 0.885 0 1.767-0.008 2.648-0.025l-0.132 0.002h418.909c0.749 0.015 1.631 0.023 2.516 0.023 75.742 0 137.144-61.401 137.144-137.144 0-0.885-0.008-1.767-0.025-2.648l0.002 0.132v-46.546c0-25.706-20.839-46.546-46.546-46.546s-46.546 20.839-46.546 46.546v0 46.546c0.051 0.792 0.080 1.718 0.080 2.65 0 24.287-19.688 43.975-43.975 43.975-0.932 0-1.858-0.029-2.776-0.086l0.126 0.006h-418.909c-0.792 0.051-1.718 0.080-2.65 0.080-24.287 0-43.975-19.688-43.975-43.975 0-0.932 0.029-1.858 0.086-2.776l-0.006 0.126v-418.909c-0.051-0.792-0.080-1.718-0.080-2.65 0-24.287 19.688-43.975 43.975-43.975 0.932 0 1.858 0.029 2.776 0.086l-0.126-0.006h46.546c0.792 0.051 1.718 0.080 2.65 0.080 24.287 0 43.975-19.688 43.975-43.975 0-0.933-0.029-1.858-0.086-2.776l0.006 0.126z" />
<glyph unicode="&#xe902;" glyph-name="arrow-down" d="M1017.488 708.632c-8.682 8.682-22.796 8.682-31.478 0l-473.987-474.033-474.033 473.987c-8.682 8.682-22.796 8.682-31.478 0s-8.682-22.796 0-31.478l489.75-489.75c4.364-4.318 10.061-6.501 15.761-6.501s11.397 2.181 15.717 6.545l489.75 489.75c8.68 8.684 8.68 22.798-0.002 31.48z" />
<glyph unicode="&#xe903;" glyph-name="bank" d="M1024 721.067v-34.133c0-9.426-7.641-17.067-17.067-17.067v0h-51.2v-25.6c0-14.138-11.462-25.6-25.6-25.6h-836.267c-14.138 0-25.6 11.462-25.6 25.6v25.6h-51.2c-9.426 0-17.067 7.641-17.067 17.067v0 34.133c0 7.071 4.301 13.138 10.429 15.728l0.112 0.042 494.933 187.733c1.929 0.82 4.172 1.298 6.526 1.298s4.597-0.477 6.638-1.34l-0.112 0.042 494.933-187.733c6.24-2.631 10.541-8.699 10.541-15.77v0zM972.8 72.533h-921.6c-28.277 0-51.2-22.923-51.2-51.2v-34.133c0-9.426 7.641-17.067 17.067-17.067v0h989.867c9.426 0 17.067 7.641 17.067 17.067v0 34.133c0 28.277-22.923 51.2-51.2 51.2zM170.667 584.533v-409.6h-76.8c-14.138 0-25.6-11.462-25.6-25.6v-42.667h887.468v42.667c0 14.138-11.462 25.6-25.6 25.6h-76.8v409.6h-136.533v-409.6h-136.533v409.6h-136.533v-409.6h-136.533v409.6h-136.533z" />
<glyph unicode="&#xe904;" glyph-name="bars" d="M36.572 731.429h950.857c20.199 0 36.571 16.373 36.571 36.571v91.429c0 20.199-16.373 36.571-36.571 36.571h-950.857c-20.199 0-36.571-16.373-36.571-36.571v-91.429c0-20.199 16.373-36.571 36.571-36.571zM36.572 365.714h950.857c20.199 0 36.571 16.373 36.571 36.571v91.429c0 20.199-16.373 36.571-36.571 36.571h-950.857c-20.199 0-36.571-16.373-36.571-36.571v-91.429c0-20.199 16.373-36.571 36.571-36.571zM36.572 0h950.857c20.199 0 36.571 16.373 36.571 36.571v91.429c0 20.199-16.373 36.571-36.571 36.571h-950.857c-20.199 0-36.571-16.373-36.571-36.571v-91.429c0-20.199 16.373-36.571 36.571-36.571z" />
<glyph unicode="&#xe905;" glyph-name="bell" d="M623.705 70.991c-6.419 3.088-13.956 4.892-21.915 4.892-18.044 0-33.922-9.273-43.128-23.314l-0.121-0.196c-8.089-14.962-23.661-24.955-41.568-24.955-8.69 0-16.829 2.353-23.817 6.457l0.221-0.12c-9.309 4.655-13.964 13.964-18.618 18.618-8.344 14.81-23.969 24.649-41.891 24.649-26.466 0-47.921-21.455-47.921-47.921 0-8.544 2.236-16.566 6.155-23.512l-0.124 0.24c12.314-21.519 29.68-38.886 50.54-50.851l0.659-0.349c19.259-11.709 42.544-18.639 67.448-18.639 0.833 0 1.665 0.008 2.495 0.023l-0.124-0.002c51.411 0.103 96.319 27.85 120.66 69.162l0.357 0.656c13.964 23.273 13.964 55.854-9.309 65.163zM977.453 261.831c-51.35 0.155-92.935 41.741-93.090 93.076v232.741c0 205.65-166.712 372.362-372.362 372.362s-372.362-166.712-372.362-372.362v0-232.726c-0.155-51.35-41.741-92.935-93.076-93.090h-0.015c-25.706 0-46.545-20.839-46.545-46.545s20.839-46.545 46.545-46.545v0h930.905c25.706 0 46.545 20.839 46.545 46.545s-20.839 46.545-46.545 46.545v0z" />
<glyph unicode="&#xe906;" glyph-name="bell-o" d="M814.504 261.829c-14.153 27.056-22.691 59.011-23.27 92.906l-0.002 0.185v232.727c0 154.238-125.035 279.273-279.273 279.273s-279.273-125.035-279.273-279.273v0-232.727c-0.581-34.080-9.12-66.035-23.829-94.264l0.556 1.173zM1023.959 215.284c0.051-0.792 0.080-1.718 0.080-2.651 0-24.287-19.688-43.975-43.975-43.975-0.933 0-1.858 0.029-2.776 0.086l0.126-0.006h-930.909c-25.706 0-46.545 20.839-46.545 46.545s20.839 46.545 46.545 46.545v0c51.35 0.155 92.936 41.741 93.091 93.076v232.742c0 205.651 166.713 372.364 372.364 372.364s372.364-166.713 372.364-372.364v0-232.727c0.155-51.35 41.741-92.936 93.076-93.091h0.015c0.792 0.051 1.718 0.080 2.651 0.080 24.287 0 43.975-19.688 43.975-43.975 0-0.933-0.029-1.858-0.086-2.776l0.006 0.126zM632.977 5.829c-24.699-41.969-69.607-69.715-121.003-69.818h-0.015c-0.705-0.014-1.537-0.021-2.37-0.021-24.904 0-48.189 6.931-68.032 18.969l0.584-0.329c-21.52 12.314-38.886 29.68-50.851 50.541l-0.349 0.659c-3.795 6.707-6.031 14.729-6.031 23.273 0 26.466 21.455 47.921 47.921 47.921 17.922 0 33.547-9.839 41.767-24.409l0.124-0.24c4.655-4.655 9.309-13.964 18.618-18.618 6.766-3.984 14.906-6.337 23.596-6.337 17.906 0 33.479 9.993 41.444 24.706l0.123 0.249c9.327 14.237 25.205 23.51 43.248 23.51 7.959 0 15.496-1.804 22.225-5.026l-0.31 0.134c23.273-9.309 23.273-41.891 9.309-65.164z" />
<glyph unicode="&#xe907;" glyph-name="blocks" d="M27.927 639.719l465.454-232.992c4.654-4.66 9.309-4.66 18.618-4.66s13.964 0 18.618 4.66l465.455 232.992c16.543 7.042 27.93 23.161 27.93 41.939s-11.387 34.896-27.633 41.826l-0.297 0.113-465.455 232.992c-6.244 2.215-13.445 3.495-20.945 3.495s-14.702-1.28-21.397-3.633l0.452 0.138-465.454-232.992c-14.058-8.765-23.274-24.144-23.274-41.675 0-0.093 0-0.185 0.001-0.278v0.014c-0.001-0.133-0.002-0.291-0.002-0.449 0-18.658 11.41-34.65 27.633-41.381l0.297-0.109zM512 863.391l363.055-181.734-363.055-181.735-363.055 181.735zM1019.346 234.313c2.488-5.682 3.935-12.304 3.935-19.264 0-17.259-8.901-32.438-22.364-41.198l-0.19-0.116-465.454-232.992c-5.661-3.041-12.387-4.827-19.53-4.827-1.318 0-2.621 0.061-3.908 0.18l0.165-0.012c-9.309 0-13.964 0-18.618 4.66l-465.455 232.992c-15.019 6.357-25.365 20.971-25.365 38.001 0 8.402 2.518 16.217 6.842 22.729l-0.095-0.152c6.325 15.029 20.929 25.39 37.953 25.39 8.396 0 16.203-2.52 22.707-6.845l-0.151 0.094 446.836-223.672 446.836 223.672c13.964 13.979 41.891 4.66 55.855-18.639zM1019.346 467.305c2.488-5.682 3.935-12.304 3.935-19.264 0-17.259-8.901-32.438-22.364-41.198l-0.19-0.116-465.454-232.992c-5.661-3.041-12.387-4.827-19.53-4.827-1.318 0-2.621 0.061-3.908 0.18l0.165-0.012c-9.309 0-13.964 0-18.618 4.66l-465.455 232.992c-15.019 6.357-25.365 20.971-25.365 38.001 0 8.403 2.519 16.217 6.842 22.729l-0.095-0.152c6.325 15.029 20.929 25.39 37.953 25.39 8.396 0 16.203-2.52 22.707-6.845l-0.151 0.094 446.836-223.672 446.836 223.672c13.964 13.979 41.891 4.66 55.855-18.639z" />
<glyph unicode="&#xe908;" glyph-name="calendar" d="M841.564 871.695h-94.161v47.080c0 26.002-21.079 47.081-47.081 47.081s-47.081-21.079-47.081-47.081v0-47.080h-282.483v47.080c0.052 0.801 0.081 1.738 0.081 2.681 0 24.566-19.915 44.48-44.48 44.48-0.943 0-1.879-0.029-2.808-0.087l0.127 0.006c-0.801 0.052-1.738 0.081-2.681 0.081-24.566 0-44.48-19.915-44.48-44.48 0-0.943 0.029-1.88 0.087-2.808l-0.006 0.127v-47.080h-94.161c-0.757 0.015-1.65 0.023-2.544 0.023-76.613 0-138.72-62.107-138.72-138.72 0-0.895 0.008-1.787 0.025-2.678l-0.002 0.134v-659.127c-0.015-0.757-0.023-1.65-0.023-2.544 0-76.613 62.107-138.72 138.72-138.72 0.895 0 1.787 0.008 2.678 0.025l-0.134-0.002h659.126c0.757-0.015 1.65-0.023 2.544-0.023 76.613 0 138.72 62.107 138.72 138.72 0 0.895-0.008 1.787-0.025 2.678l0.002-0.134v659.127c0.015 0.757 0.023 1.65 0.023 2.544 0 76.613-62.107 138.72-138.72 138.72-0.895 0-1.787-0.008-2.678-0.025l0.134 0.002zM182.438 777.534h94.161v-47.080c-0.052-0.801-0.081-1.738-0.081-2.681 0-24.566 19.915-44.48 44.48-44.48 0.943 0 1.88 0.029 2.808 0.087l-0.127-0.006c0.801-0.052 1.738-0.081 2.681-0.081 24.566 0 44.48 19.915 44.48 44.48 0 0.943-0.029 1.879-0.087 2.808l0.006-0.127v47.080h282.483v-47.080c0-26.002 21.079-47.081 47.081-47.081s47.081 21.079 47.081 47.081v0 47.080h94.161c0.801 0.052 1.738 0.081 2.681 0.081 24.566 0 44.48-19.915 44.48-44.48 0-0.943-0.029-1.879-0.087-2.808l0.006 0.127v-141.241h-753.288v141.241c-0.052 0.801-0.081 1.738-0.081 2.681 0 24.566 19.915 44.48 44.48 44.48 0.943 0 1.88-0.029 2.808-0.087l-0.127 0.006zM841.564 24.247h-659.126c-0.801-0.052-1.738-0.081-2.681-0.081-24.566 0-44.48 19.915-44.48 44.48 0 0.943 0.029 1.879 0.087 2.808l-0.006-0.127v423.724h753.287v-423.724c0.052-0.801 0.081-1.738 0.081-2.681 0-24.566-19.915-44.48-44.48-44.48-0.943 0-1.88 0.029-2.808 0.087l0.127-0.006z" />
<glyph unicode="&#xe909;" glyph-name="cart-plus" d="M897.275 334.222h-521.147l11.636-56.889h477.188c27.38 0 47.673-25.424 41.605-52.123l-9.808-43.157c33.228-16.13 56.14-50.192 56.14-89.609 0-55.47-45.367-100.345-101.020-99.545-53.019 0.763-96.622 43.788-98.053 96.795-0.782 28.955 10.818 55.198 29.872 73.863h-372.708c18.448-18.073 29.909-43.248 29.909-71.113 0-56.556-47.161-102.1-104.302-99.445-50.738 2.356-92.002 43.351-94.668 94.075-2.059 39.172 18.553 73.698 49.868 91.708l-124.884 610.551h-124.236c-23.564 0-42.667 19.102-42.667 42.667v28.444c0 23.564 19.102 42.667 42.667 42.667h182.274c20.268 0 37.739-14.26 41.801-34.116l16.295-79.662h698.279c27.38 0 47.673-25.424 41.605-52.123l-84.041-369.778c-4.414-19.426-21.684-33.211-41.605-33.211zM725.333 604.444h-85.333v71.111c0 15.71-12.734 28.444-28.444 28.444h-28.444c-15.71 0-28.444-12.734-28.444-28.444v-71.111h-85.333c-15.71 0-28.444-12.734-28.444-28.444v-28.444c0-15.71 12.734-28.444 28.444-28.444h85.333v-71.111c0-15.71 12.734-28.444 28.444-28.444h28.444c15.71 0 28.444 12.734 28.444 28.444v71.111h85.333c15.71 0 28.444 12.734 28.444 28.444v28.444c0 15.71-12.734 28.444-28.444 28.444z" />
<glyph unicode="&#xe90a;" glyph-name="chart-up" d="M964.267 512.853h-180.907c-27.307 0-44.373-17.067-44.373-44.373v-453.973c0-27.307 17.067-44.373 44.373-44.373h180.907c27.307 0 44.373 17.067 44.373 44.373v453.973c3.413 27.307-17.067 44.373-44.373 44.373zM919.894 58.88h-92.16v365.227h92.16v-365.227zM602.454 287.573h-180.907c-27.307 0-44.373-17.067-44.373-44.373v-228.693c0-27.307 17.067-44.373 44.373-44.373h180.907c27.307 0 44.373 17.067 44.373 44.373v228.693c0 23.893-17.067 44.373-44.373 44.373zM554.667 58.88h-92.16v136.533h92.16v-136.533zM237.227 103.253c27.307 0 44.373-17.067 44.373-44.373v-44.373c0-27.307-17.067-44.373-44.373-44.373h-180.907c-27.307 0-44.373 17.067-44.373 44.373v44.373c0 27.307 17.067 44.373 44.373 44.373h180.907zM1012.054 878.080v-228.693c0-27.307-17.067-44.373-44.373-44.373s-44.373 17.067-44.373 44.373v119.467l-358.4-354.987c-17.067-17.067-44.373-17.067-64.853 0l-105.813 105.813-262.827-262.827c-10.24-10.24-17.067-13.653-30.72-13.653s-23.893 3.413-30.72 13.653c-17.067 17.067-17.067 44.373 0 64.853l296.96 296.96c17.067 17.067 44.373 17.067 64.853 0l105.813-105.813 324.267 324.267h-119.467c-27.307 0-44.373 17.067-44.373 44.373s17.067 44.373 44.373 44.373h228.693c3.413 0 13.653 0 17.067-3.413 10.24-3.413 17.067-13.653 23.893-23.893 0-6.827 0-17.067 0-20.48z" />
<glyph unicode="&#xe90b;" glyph-name="check" d="M960.6 695.375l-567.2-567c-10.4-10.4-20.6-15.4-36-15.4s-25.8 5.2-36 15.4l-258 257.8c-20.6 20.6-20.6 51.6 0 72.2s51.6 20.6 72.2 0l221.8-221.8 531 531c20.6 20.6 51.6 20.6 72.2 0s20.6-51.6 0-72.2z" />
<glyph unicode="&#xe90c;" glyph-name="check-square" d="M884.716 494.563c-27.937 0-46.562-18.625-46.562-46.562v-325.936c0-27.937-18.671-46.562-46.562-46.562h-651.871c-27.937 0-46.562 18.625-46.562 46.562v651.871c0 27.937 18.625 46.562 46.562 46.562h512.185c27.891 0 46.562 18.625 46.562 46.562s-18.671 46.562-46.562 46.562h-512.184c-79.156 0-139.687-60.531-139.687-139.687v-651.871c0-79.156 60.531-139.687 139.687-139.687h651.871c79.156 0 139.687 60.531 139.687 139.687v325.936c0 27.937-18.671 46.562-46.562 46.562zM1010.434 834.467l-512.184-512.184c-9.312-9.312-18.625-13.969-32.594-13.969s-23.281 4.656-32.594 13.969l-139.687 139.687c-8.341 8.341-13.501 19.865-13.501 32.594 0 25.457 20.637 46.094 46.094 46.094 12.729 0 24.252-5.159 32.594-13.501v0l107.093-107.093 479.591 479.591c8.345 8.36 19.881 13.532 32.625 13.532 25.457 0 46.094-20.637 46.094-46.094 0-12.744-5.172-24.28-13.531-32.624l-0.001-0.001z" />
<glyph unicode="&#xe90d;" glyph-name="child" d="M368 816c0 79.53 64.47 144 144 144s144-64.47 144-144c0-79.528-64.47-144-144-144s-144 64.472-144 144zM877.254 813.254c-24.992 24.994-65.516 24.994-90.508 0l-173.256-173.254h-202.982l-173.254 173.254c-24.992 24.994-65.516 24.994-90.508 0-24.994-24.994-24.994-65.516 0-90.51l189.254-189.252v-533.492c0-35.346 28.654-64 64-64h32c35.346 0 64 28.654 64 64v224h32v-224c0-35.346 28.654-64 64-64h32c35.346 0 64 28.654 64 64v533.492l189.254 189.254c24.994 24.994 24.994 65.514 0 90.508z" />
<glyph unicode="&#xe90e;" glyph-name="down-arrow-o" d="M548.548 181.064l460.335 460.488c20.155 20.206 20.155 52.943 0 73.2-20.155 20.206-52.892 20.206-73.047 0l-423.81-423.963-423.81 423.912c-20.155 20.206-52.892 20.206-73.098 0-20.155-20.206-20.155-52.994 0-73.2l460.335-460.488c19.947-19.9 53.198-19.9 73.093 0.051z" />
<glyph unicode="&#xe90f;" glyph-name="envelope" d="M884.363 122.183h-744.727c-0.792-0.051-1.718-0.080-2.651-0.080-24.287 0-43.975 19.688-43.975 43.975 0 0.933 0.029 1.858 0.086 2.776l-0.006-0.126v470.109l390.982-274.618c7.993-4.936 17.482-8.262 27.649-9.286l0.278-0.023c10.446 1.047 19.934 4.373 28.213 9.473l-0.286-0.164 390.982 274.618v-470.109c0.051-0.792 0.080-1.718 0.080-2.651 0-24.287-19.688-43.975-43.975-43.975-0.933 0-1.858 0.029-2.776 0.086l0.126-0.006zM139.635 773.819h744.727c0.13 0.001 0.283 0.002 0.436 0.002 18.648 0 34.631-11.412 41.346-27.633l0.109-0.297-414.255-288.582-414.255 288.582c6.824 16.518 22.807 27.929 41.455 27.929 0.153 0 0.306-0.001 0.459-0.002h-0.023zM884.363 866.91h-744.727c-0.749 0.015-1.631 0.023-2.516 0.023-75.742 0-137.144-61.401-137.144-137.144 0-0.885 0.008-1.767 0.025-2.648l-0.002 0.132v-558.545c-0.015-0.749-0.023-1.631-0.023-2.516 0-75.742 61.401-137.144 137.144-137.144 0.885 0 1.767 0.008 2.648 0.025l-0.132-0.002h744.727c0.749-0.015 1.631-0.023 2.516-0.023 75.742 0 137.144 61.401 137.144 137.144 0 0.885-0.008 1.767-0.025 2.648l0.002-0.132v558.545c0.015 0.749 0.023 1.631 0.023 2.516 0 75.742-61.401 137.144-137.144 137.144-0.885 0-1.767-0.008-2.648-0.025l0.132 0.002z" />
<glyph unicode="&#xe910;" glyph-name="eye" d="M512 362.667c-47.036 0.121-85.12 38.28-85.12 85.333 0 47.128 38.205 85.333 85.333 85.333s85.333-38.205 85.333-85.333v0c-0.194-47.125-38.405-85.261-85.54-85.333h-0.007zM512 618.667c-94.11-0.194-170.325-76.53-170.325-170.666 0-94.257 76.41-170.667 170.667-170.667s170.666 76.41 170.667 170.666v0c-0.387 94.221-76.761 170.474-170.99 170.667h-0.018zM512 149.333c-230.869 0-380.501 230.4-423.296 298.667 38.528 68.267 192.427 298.667 423.296 298.667s380.544-230.4 423.296-298.667c-42.752-68.267-192.427-298.667-423.296-298.667zM1020.8 465.067c-8.533 17.067-188.117 366.933-508.8 366.933-320.64 0-500.224-349.867-508.8-366.933-2.028-5.724-3.2-12.325-3.2-19.2s1.172-13.476 3.327-19.615l-0.127 0.415c8.576-12.8 188.16-362.667 508.8-362.667 320.683 0 500.267 349.867 508.8 366.933 2.025 5.061 3.2 10.926 3.2 17.067s-1.175 12.006-3.312 17.385l0.112-0.319z" />
<glyph unicode="&#xe911;" glyph-name="eye-o" d="M512 362.642c-47.050 0.121-85.145 38.291-85.145 85.358 0 47.142 38.216 85.358 85.358 85.358s85.358-38.216 85.358-85.358v0c-0.194-47.138-38.416-85.285-85.564-85.358h-0.007zM512 618.716c-94.064 0-171.057-76.822-171.057-170.716s76.993-170.716 171.057-170.716c94.107 0 171.057 76.822 171.057 170.716s-76.95 170.716-171.057 170.716zM512 149.248c-230.935 0-380.61 230.466-423.417 298.752 38.539 68.286 192.482 298.752 423.417 298.752s380.653-230.466 423.417-298.752c-42.764-68.286-192.482-298.752-423.417-298.752zM1020.946 465.072c-8.536 17.072-188.171 367.038-508.946 367.038-320.732 0-500.367-349.967-508.946-367.038-2.029-5.725-3.201-12.329-3.201-19.206s1.172-13.48 3.328-19.62l-0.127 0.415c8.578-12.804 188.214-362.771 508.946-362.771 320.775 0 500.41 349.967 508.946 367.038 4.268 8.536 4.268 25.607 0 34.143z" />
<glyph unicode="&#xe912;" glyph-name="facebook" d="M629.657 689.015h141.19c22.846 0 41.364 18.52 41.364 41.364v188.256c0.002 22.844-18.516 41.364-41.362 41.364h-141.19c-152.564 0-276.682-124.12-276.682-276.682v-99.826h-99.826c-22.844 0-41.364-18.52-41.364-41.364v-188.254c0-22.846 18.52-41.364 41.364-41.364h99.826v-335.144c0-22.846 18.52-41.364 41.364-41.364h188.254c22.846 0 41.364 18.518 41.364 41.364v335.142h99.826c18.98 0 35.526 12.916 40.13 31.332l47.064 188.254c3.088 12.358 0.312 25.45-7.526 35.488-7.838 10.040-19.864 15.908-32.602 15.908h-146.892v99.826c0 3.144 2.556 5.7 5.698 5.7zM582.595 500.761h135.274l-26.382-105.526h-108.894c-22.846 0-41.364-18.518-41.364-41.364v-335.144h-105.526v335.144c0 22.846-18.52 41.364-41.364 41.364h-99.826v105.526h99.826c22.844 0 41.364 18.52 41.364 41.364v141.19c0 106.946 87.006 193.954 193.954 193.954h99.826v-105.526h-99.826c-48.76 0-88.428-39.67-88.428-88.428v-141.19c0-22.844 18.52-41.364 41.366-41.364z" />
<glyph unicode="&#xe913;" glyph-name="facebook-o" d="M767.966 959.787l-132.79 0.213c-149.185 0-245.595-98.913-245.595-252.008v-116.192h-133.514c-11.537 0-20.88-9.353-20.88-20.891v-168.35c0-11.537 9.353-20.88 20.88-20.88h133.514v-424.8c0-11.537 9.343-20.88 20.88-20.88h174.198c11.537 0 20.88 9.353 20.88 20.88v424.8h156.109c11.537 0 20.88 9.343 20.88 20.88l0.064 168.35c0 5.54-2.205 10.845-6.115 14.765s-9.236 6.125-14.776 6.125h-156.163v98.498c0 47.342 11.282 71.375 72.952 71.375l89.453 0.032c11.527 0 20.869 9.353 20.869 20.88v156.322c0 11.516-9.332 20.859-20.848 20.88z" />
<glyph unicode="&#xe914;" glyph-name="google-plus" d="M785.86 491.664h-366.733v-122.245h223.744c-33.377-106.277-132.646-183.368-249.943-183.368-144.676 0-261.951 117.284-261.951 261.953 0 144.676 117.28 261.951 261.951 261.951 72.854 0 138.748-29.748 186.23-77.751l88.735 96.45c-70.868 69.442-167.905 112.275-274.965 112.275-217.007 0.002-392.928-175.919-392.928-392.926s175.921-392.932 392.93-392.932c190.092 0 356.522 134.999 392.932 314.344v122.245l-0.002 0.002zM1024 491.872h-75.013v75.013h-64.302v-75.013h-75.013v-64.295h75.013v-75.015h64.302v75.015h75.013z" />
<glyph unicode="&#xe915;" glyph-name="home" d="M958.81 624.075l-418.884 325.429c-7.417 6.519-17.207 10.496-27.925 10.496s-20.508-3.977-27.973-10.537l0.047 0.041-418.884-325.429c-11.327-7.699-18.67-20.526-18.67-35.067 0-0.747 0.020-1.491 0.057-2.229l-0.004 0.104v-511.388c-0.014-0.725-0.022-1.58-0.022-2.436 0-75.695 61.363-137.057 137.057-137.057 0.911 0 1.821 0.009 2.727 0.027l-0.136-0.002h651.598c0.771-0.016 1.681-0.025 2.592-0.025 75.695 0 137.057 61.363 137.057 137.057 0 0.857-0.008 1.711-0.024 2.564l0.002-0.129v511.388c0.034 0.635 0.053 1.378 0.053 2.125 0 14.541-7.343 27.367-18.523 34.972l-0.147 0.094zM605.086 29.005h-186.171v371.918h186.171zM884.342 75.495c0.049-0.784 0.078-1.7 0.078-2.624 0-24.272-19.677-43.948-43.948-43.948-0.94 0-1.874 0.030-2.8 0.088l0.127-0.006h-139.628v418.408c0.049 0.784 0.078 1.7 0.078 2.624 0 24.272-19.677 43.948-43.948 43.948-0.94 0-1.874-0.030-2.8-0.088l0.127 0.006h-279.257c-0.799 0.051-1.733 0.081-2.673 0.081-24.272 0-43.948-19.677-43.948-43.948 0-0.923 0.029-1.839 0.084-2.748l-0.006 0.125v-418.408h-139.628c-0.799-0.051-1.733-0.081-2.673-0.081-24.272 0-43.948 19.677-43.948 43.948 0 0.923 0.029 1.839 0.084 2.748l-0.006-0.125v488.143l372.341 288.238 372.342-288.238z" />
<glyph unicode="&#xe916;" glyph-name="hospital" d="M967.112 732.444h-227.556v113.778c0 31.467-25.422 56.889-56.889 56.889h-341.333c-31.467 0-56.889-25.422-56.889-56.889v-113.778h-227.556c-31.467 0-56.889-25.422-56.889-56.889v-654.222c0-15.644 12.8-28.444 28.444-28.444h967.111c15.644 0 28.444 12.8 28.444 28.444v654.222c0 31.467-25.422 56.889-56.889 56.889zM284.445 128c0-11.733-9.6-21.333-21.333-21.333h-71.111c-11.733 0-21.333 9.6-21.333 21.333v71.111c0 11.733 9.6 21.333 21.333 21.333h71.111c11.733 0 21.333-9.6 21.333-21.333v-71.111zM284.445 355.556c0-11.733-9.6-21.333-21.333-21.333h-71.111c-11.733 0-21.333 9.6-21.333 21.333v71.111c0 11.733 9.6 21.333 21.333 21.333h71.111c11.733 0 21.333-9.6 21.333-21.333v-71.111zM568.89 128c0-11.733-9.6-21.333-21.333-21.333h-71.111c-11.733 0-21.333 9.6-21.333 21.333v71.111c0 11.733 9.6 21.333 21.333 21.333h71.111c11.733 0 21.333-9.6 21.333-21.333v-71.111zM568.89 355.556c0-11.733-9.6-21.333-21.333-21.333h-71.111c-11.733 0-21.333 9.6-21.333 21.333v71.111c0 11.733 9.6 21.333 21.333 21.333h71.111c11.733 0 21.333-9.6 21.333-21.333v-71.111zM597.334 657.778c0-5.867-4.8-10.667-10.667-10.667h-46.222v-46.222c0-5.867-4.8-10.667-10.667-10.667h-35.556c-5.867 0-10.667 4.8-10.667 10.667v46.222h-46.222c-5.867 0-10.667 4.8-10.667 10.667v35.556c0 5.867 4.8 10.667 10.667 10.667h46.222v46.222c0 5.867 4.8 10.667 10.667 10.667h35.556c5.867 0 10.667-4.8 10.667-10.667v-46.222h46.222c5.867 0 10.667-4.8 10.667-10.667v-35.556zM853.334 128c0-11.733-9.6-21.333-21.333-21.333h-71.111c-11.733 0-21.333 9.6-21.333 21.333v71.111c0 11.733 9.6 21.333 21.333 21.333h71.111c11.733 0 21.333-9.6 21.333-21.333v-71.111zM853.334 355.556c0-11.733-9.6-21.333-21.333-21.333h-71.111c-11.733 0-21.333 9.6-21.333 21.333v71.111c0 11.733 9.6 21.333 21.333 21.333h71.111c11.733 0 21.333-9.6 21.333-21.333v-71.111z" />
<glyph unicode="&#xe917;" glyph-name="instagram" d="M297.231 960c-163.692 0-297.231-133.538-297.231-297.231v-429.538c0-163.692 133.538-297.231 297.231-297.231h429.538c163.692 0 297.231 133.538 297.231 297.231v429.538c0 163.692-133.538 297.231-297.231 297.231zM297.231 881.231h429.538c121.077 0 218.462-97.231 218.462-218.462v-429.538c0-121.077-97.231-218.462-218.462-218.462h-429.538c-121.077 0-218.462 97.231-218.462 218.462v429.538c0 121.077 97.231 218.462 218.462 218.462zM807.385 802.462c-32.615 0-59.077-26.462-59.077-59.077s26.462-59.077 59.077-59.077c32.615 0 59.077 26.462 59.077 59.077s-26.462 59.077-59.077 59.077zM512 723.692c-151.846 0-275.692-123.846-275.692-275.692s123.846-275.692 275.692-275.692c151.846 0 275.692 123.846 275.692 275.692s-123.846 275.692-275.692 275.692zM512 644.923c109.231 0 196.923-87.692 196.923-196.923s-87.692-196.923-196.923-196.923c-109.231 0-196.923 87.692-196.923 196.923s87.692 196.923 196.923 196.923z" />
<glyph unicode="&#xe918;" glyph-name="left-arrow" d="M982.636 489.364h-941.272c-22.844 0-41.364-18.52-41.364-41.364 0-22.846 18.52-41.364 41.364-41.364h941.272c22.846 0 41.364 18.518 41.364 41.364 0 22.844-18.518 41.364-41.364 41.364zM99.864 448l323.726 323.728c16.154 16.154 16.154 42.344 0 58.498-16.154 16.152-42.344 16.152-58.498 0l-352.976-352.976c-16.154-16.154-16.154-42.344 0-58.498l352.976-352.976c8.076-8.078 18.664-12.116 29.25-12.116s21.174 4.038 29.25 12.116c16.154 16.154 16.154 42.344 0 58.498l-323.728 323.726z" />
<glyph unicode="&#xe919;" glyph-name="like" d="M942.037 826.003c-50.906 53.471-122.415 86.926-201.743 87.585l-0.122 0.001c-80.867-0.603-153.818-34.002-206.304-87.539l-0.047-0.048-17.944-18.437-17.944 18.437c-51.725 53.333-124.051 86.434-204.107 86.434s-152.382-33.1-204.038-86.362l-0.070-0.073c-55.351-53.476-89.718-128.367-89.718-211.284 0-0.269 0-0.539 0.001-0.808v0.042c0.217-82.308 32.649-156.999 85.345-212.169l-0.113 0.119 394.758-405.661c7.809-8.513 18.984-13.829 31.401-13.829s23.592 5.317 31.373 13.799l0.029 0.032 394.758 405.661c52.583 55.051 85.015 129.742 85.232 212.007v0.043c0.774 7.454 1.216 16.105 1.216 24.86 0 73.929-31.493 140.502-81.794 187.036l-0.169 0.154zM879.235 466.437l-363.356-373.391-363.356 373.391c-36.091 36.879-58.361 87.409-58.361 143.14 0 1.538 0.017 3.071 0.051 4.601l-0.004-0.228c0.982 56.957 22.952 108.6 58.481 147.698l-0.166-0.185c33.781 36.9 82.165 59.954 135.934 59.954 1.1 0 2.197-0.009 3.292-0.029l-0.165 0.002c1.027 0.019 2.239 0.031 3.454 0.031 55.067 0 104.766-22.985 140.025-59.885l0.070-0.074 49.344-50.707c7.809-8.513 18.984-13.829 31.401-13.829s23.592 5.317 31.373 13.799l0.029 0.032 44.859 50.707c38.386 36.851 90.521 59.636 147.976 59.929h0.057c55.929-1.252 106.342-23.87 143.604-59.981l-0.055 0.054c35.364-38.914 57.332-90.556 58.312-147.314l0.003-0.198c-0.557-57.822-24.48-109.95-62.767-147.481l-0.035-0.034z" />
<glyph unicode="&#xe91a;" glyph-name="marker-stroke" d="M512 960c-235.355-0.711-425.956-191.312-426.667-426.599v-0.068c0-315.733 388.267-580.266 401.067-588.8 7.327-4.524 16.025-7.574 25.345-8.512l0.255-0.021c9.575 0.96 18.273 4.009 25.862 8.683l-0.262-0.15c12.8 8.533 401.067 273.067 401.067 588.8-0.711 235.355-191.312 425.956-426.599 426.667h-0.068zM512 29.867c-81.067 59.733-341.333 273.066-341.333 503.466 0 188.513 152.82 341.333 341.333 341.333s341.333-152.82 341.333-341.333v0c-0.001-230.4-260.267-443.733-341.334-503.466zM512 704c-94.257 0-170.667-76.41-170.667-170.667s76.41-170.667 170.667-170.667c94.257 0 170.667 76.41 170.667 170.667v0c-0.284 94.142-76.525 170.382-170.64 170.667h-0.027zM512 448c-47.128 0-85.333 38.205-85.333 85.333s38.205 85.333 85.333 85.333c47.128 0 85.333-38.205 85.333-85.333v0c-0.142-47.071-38.262-85.191-85.32-85.333h-0.014z" />
<glyph unicode="&#xe91b;" glyph-name="market" d="M768 640v64c0 141.16-114.842 256-256 256-141.16 0-256-114.84-256-256v-64h-192v-544c0-88.366 71.634-160 160-160h576c88.366 0 160 71.634 160 160v544h-192zM384 704c0 70.58 57.42 128 128 128s128-57.42 128-128v-64h-256v64zM704 464c-26.51 0-48 21.49-48 48s21.49 48 48 48 48-21.49 48-48-21.49-48-48-48zM320 464c-26.51 0-48 21.49-48 48s21.49 48 48 48 48-21.49 48-48-21.49-48-48-48z" />
<glyph unicode="&#xe91c;" glyph-name="multiply" d="M707.491 596.945c13.964 0 23.273 4.655 32.582 13.964l130.327 130.327c8.316 8.335 13.458 19.839 13.458 32.544 0 25.448-20.63 46.078-46.078 46.078-12.705 0-24.209-5.142-32.545-13.459l-130.326-130.326c-8.61-8.211-13.964-19.771-13.964-32.582s5.354-24.371 13.946-32.565l0.018-0.017c8.493-8.166 19.878-13.379 32.471-13.96l0.111-0.004zM283.927 285.091l-130.327-130.327c-8.61-8.211-13.964-19.771-13.964-32.582s5.354-24.371 13.946-32.565l0.018-0.017c8.493-8.166 19.878-13.379 32.471-13.96l0.111-0.004c12.704 0.585 24.088 5.798 32.598 13.979l-0.017-0.016 130.327 130.327c8.61 8.211 13.964 19.771 13.964 32.582s-5.354 24.371-13.946 32.565l-0.018 0.017c-18.618 18.618-51.2 18.618-65.164 0zM977.455 494.546h-186.182c-27.927 0-46.546-18.618-46.546-46.546s18.618-46.546 46.546-46.546h186.182c27.927 0 46.546 18.618 46.546 46.546s-18.618 46.546-46.546 46.546zM279.273 448c0 27.927-18.618 46.546-46.546 46.546h-186.182c-27.927 0-46.546-18.618-46.546-46.546s18.618-46.546 46.546-46.546h186.182c27.927 0 46.546 18.618 46.546 46.546zM740.073 285.091c-8.338 8.338-19.858 13.496-32.582 13.496-25.448 0-46.078-20.63-46.078-46.078 0-12.724 5.157-24.243 13.496-32.582l130.327-130.327c8.211-8.61 19.771-13.964 32.582-13.964s24.371 5.354 32.565 13.946l0.017 0.018c8.61 8.211 13.964 19.771 13.964 32.582s-5.354 24.371-13.946 32.565l-0.018 0.017zM214.109 811.054c-8.336 8.323-19.845 13.471-32.557 13.471-25.448 0-46.078-20.63-46.078-46.078 0-12.711 5.147-24.221 13.471-32.557l130.326-130.326c8.493-8.166 19.878-13.379 32.471-13.96l0.111-0.004c12.704 0.585 24.088 5.798 32.598 13.979l-0.017-0.016c8.61 8.211 13.964 19.771 13.964 32.582s-5.354 24.371-13.946 32.565l-0.018 0.017zM512 215.273c-27.927 0-46.546-18.618-46.546-46.546v-186.182c0-27.927 18.618-46.546 46.546-46.546s46.546 18.618 46.546 46.546v186.182c0 27.927-18.618 46.546-46.546 46.546zM558.546 913.455v-186.182c0-27.927-18.618-46.546-46.546-46.546s-46.546 18.618-46.546 46.546v186.182c0 27.927 18.618 46.546 46.546 46.546s46.546-18.618 46.546-46.546z" />
<glyph unicode="&#xe91d;" glyph-name="parking" d="M502.941 626.169c-25.984 0-43.122-2.496-52.994-5.014v-166.692c11.276-2.518 24.514-3.343 42.943-3.343 67.858 0 109.732 34.364 109.732 92.127 0.022 51.947-36.035 82.923-99.681 82.923zM891.437 960h-758.852c-67.011 0-121.298-54.309-121.298-121.298v-781.427c0-66.989 54.309-121.275 121.298-121.275h758.852c67.011 0 121.275 54.309 121.275 121.275v781.427c0.022 67.011-54.264 121.298-121.275 121.298zM937.991 76.73c0-36.481-29.55-65.986-65.986-65.986h-721.368c-36.458 0-66.008 29.55-66.008 65.986v741.113c0 36.436 29.55 65.986 66.008 65.986h721.346c36.458 0 65.986-29.55 65.986-65.986l0.022-741.113zM871.982 837.276h-721.346c-10.741 0-19.477-8.691-19.477-19.455v-741.113c0-10.697 8.713-19.455 19.477-19.455h721.346c10.719 0 19.455 8.736 19.455 19.455v741.135c0 10.741-8.713 19.433-19.455 19.433zM677.366 412.544c-43.523-41.027-108.239-59.457-183.651-59.457-16.736 0-31.065 0.847-43.768 2.518v-202.393h-125.532v557.573c39.489 6.708 94.4 11.744 172.308 11.744 78.756 0 134.736-15.087 172.464-45.261 35.99-28.458 60.237-75.39 60.237-130.657 0-55.334-18.497-102.266-52.058-134.067z" />
<glyph unicode="&#xe91e;" glyph-name="pharmacy" d="M914.286 960h-804.571c-60.571 0-109.714-49.143-109.714-109.714v-804.571c0-60.571 49.143-109.714 109.714-109.714h804.571c60.571 0 109.714 49.143 109.714 109.714v804.571c0 60.571-49.143 109.714-109.714 109.714zM841.143 384c0-15.086-12.343-27.429-27.429-27.429h-210.286v-210.286c0-15.086-12.343-27.429-27.429-27.429h-128c-15.086 0-27.429 12.343-27.429 27.429v210.286h-210.286c-15.086 0-27.429 12.343-27.429 27.429v128c0 15.086 12.343 27.429 27.429 27.429h210.286v210.286c0 15.086 12.343 27.429 27.429 27.429h128c15.086 0 27.429-12.343 27.429-27.429v-210.286h210.286c15.086 0 27.429-12.343 27.429-27.429v-128z" />
<glyph unicode="&#xe91f;" glyph-name="phone" d="M930.591 216.554v-140.241c0.010-0.349 0.016-0.759 0.016-1.171 0-12.51-5.418-23.755-14.035-31.516l-0.038-0.034c-8.378-8.785-20.172-14.247-33.243-14.247-1.472 0-2.927 0.069-4.363 0.205l0.184-0.014c-144.119 15.831-274.36 64.25-386.763 137.699l3.369-2.065c-108.286 68.979-197.524 158.203-264.47 263.040l-2.050 3.432c-71.356 109.058-119.771 239.309-135.278 379.481l-0.356 3.961c0.312 12.108 3.748 23.35 9.527 33.032l-0.172-0.31c9.426 10.376 22.504 17.287 37.189 18.693l0.233 0.018h140.288c23.77-1.189 43.072-18.881 46.741-41.793l0.038-0.284c5.756-51.926 18.953-99.378 38.588-143.323l-1.212 3.035c1.133-4.535 1.783-9.741 1.783-15.1 0-13.56-4.164-26.148-11.282-36.555l0.144 0.222-60.788-56.087c-8.76-8.967-14.165-21.245-14.165-34.785 0-7.758 1.774-15.101 4.938-21.646l-0.13 0.297c71.012-126.48 172.761-228.229 295.391-297.249l3.849-1.992c6.457-4.039 14.302-6.435 22.706-6.435 13.43 0 25.431 6.117 33.369 15.718l0.058 0.073 60.788 60.788c7.848 8.709 19.166 14.159 31.758 14.159 7.189 0 13.964-1.777 19.908-4.916l-0.233 0.112c39.811-15.324 86.961-28.319 135.672-36.76l4.616-0.662c21.109-5.75 36.528-24.347 37.419-46.681l0.003-0.097zM902.477 356.842c-45.013 4.863-86.163 14.755-125.087 29.225l3.556-1.158c-14.217 4.991-30.608 7.875-47.673 7.875-39.536 0-75.458-15.477-102.036-40.704l0.065 0.061-32.721-32.721c-86.644 56.626-158.461 128.444-213.386 212.32l-1.7 2.767 32.721 32.768c25.313 26.23 40.909 61.984 40.909 101.38 0 17.277-2.999 33.853-8.506 49.237l0.319-1.020c-13.311 35.381-23.204 76.547-27.864 119.285l-0.203 2.291c-9.946 69.080-68.736 121.577-139.787 121.577-0.16 0-0.32 0-0.479-0.001h-154.32c-37.849-4.874-70.558-23.758-93.317-51.194l-0.192-0.239c-20.484-26.554-32.832-60.299-32.832-96.928 0-2.088 0.040-4.167 0.12-6.235l-0.009 0.298c17.798-159.844 71.168-304.324 151.993-429.401l-2.35 3.882c77.301-118.841 175.698-217.237 290.748-292.222l3.792-2.318c120.578-80.511 265.504-134.222 421.719-149.346l3.799-0.297h14.057c1.043-0.031 2.27-0.048 3.502-0.048 37.516 0 71.246 16.213 94.564 42.015l0.098 0.111c24.306 25.784 39.929 59.99 42.059 97.803l0.018 0.408v140.241c0.001 0.146 0.001 0.318 0.001 0.491 0 71.054-52.496 129.846-120.819 139.708l-0.758 0.090z" />
<glyph unicode="&#xe920;" glyph-name="right-arrow-o" d="M778.936 484.548l-460.488 460.335c-20.206 20.155-52.943 20.155-73.2 0-20.206-20.155-20.206-52.892 0-73.047l423.963-423.81-423.912-423.81c-20.206-20.155-20.206-52.892 0-73.098 20.206-20.155 52.994-20.155 73.2 0l460.488 460.335c19.9 19.947 19.9 53.198-0.051 73.093z" />
<glyph unicode="&#xe921;" glyph-name="school" d="M996.615 539.194l-441.307-136.16c-12.967-3.955-27.871-6.232-43.307-6.232s-30.34 2.277-44.395 6.513l1.088-0.282-320.856 98.997c-13.702-18.301-17.629-36.88-19.069-61.336 14.877-8.957 24.832-25.261 24.832-43.893 0-19.123-10.491-35.786-26.024-44.578l25.915-196.954c1.008-7.658-4.96-14.469-12.691-14.469h-76.8c-7.725 0-13.699 6.805-12.691 14.47l25.915 196.954c-15.533 8.79-26.024 25.453-26.024 44.576 0 19.254 10.634 36.018 26.344 44.762 1.515 28.722 6.358 53.17 19.443 76.155l-69.603 21.475c-36.602 10.882-36.426 62.786 0 73.616l441.307 136.16c12.967 3.955 27.871 6.232 43.307 6.232s30.34-2.277 44.395-6.513l-1.088 0.282 441.307-136.16c36.603-10.882 36.427-62.786 0.002-73.616zM570.406 354.111l-0.331-0.102-0.331-0.098c-17.289-5.273-37.161-8.309-57.742-8.309s-40.452 3.036-59.191 8.684l1.45-0.375-0.331 0.098-241.794 74.614-20.134-134.221c0-56.554 143.269-102.4 320-102.4s320 45.846 320 102.4l-20.133 134.221-241.462-74.512z" />
<glyph unicode="&#xe922;" glyph-name="search" d="M1011.461 8.725l-246.178 246.178c61.022 74.397 97.802 169.691 97.802 273.554 0 238.237-193.306 431.543-431.543 431.543-238.446 0-431.543-193.306-431.543-431.543s193.097-431.543 431.543-431.543c103.863 0 198.949 36.571 273.345 97.593l246.178-245.969c16.718-16.718 43.677-16.718 60.395 0 16.718 16.509 16.718 43.677 0 60.186zM431.543 182.805c-190.798 0-345.861 155.063-345.861 345.652s155.063 345.861 345.861 345.861c190.589 0 345.861-155.272 345.861-345.861s-155.272-345.652-345.861-345.652z" />
<glyph unicode="&#xe923;" glyph-name="shield" d="M898.069 871.724l-376.643 94.161h-23.54l-376.644-94.161c-19.279-6.067-33.017-23.781-33.017-44.703 0-0.836 0.022-1.667 0.065-2.492l-0.005 0.115v-376.644c0-306.023 386.060-503.761 404.892-513.177 4.708-4.708 9.416-4.708 18.832-4.708s14.124 0 18.832 4.708c18.832 9.416 404.892 207.154 404.892 513.177v376.644c0.027 0.585 0.042 1.272 0.042 1.962 0 22.443-16.126 41.12-37.424 45.075l-0.283 0.044zM841.572 448c0-211.862-254.234-371.936-329.563-419.016-75.329 42.372-329.563 202.446-329.563 419.016v338.979l329.563 84.745 329.563-84.745z" />
<glyph unicode="&#xe924;" glyph-name="star-o" d="M805.887-40.728c-5.801 0-11.627 1.386-16.964 4.19l-276.92 145.585-276.92-145.585c-12.29-6.457-27.179-5.383-38.41 2.778-11.233 8.158-16.856 21.988-14.51 35.676l52.885 308.356-224.032 218.378c-9.941 9.69-13.518 24.185-9.229 37.385 4.289 13.203 15.703 22.826 29.443 24.824l309.607 44.986 138.46 280.552c6.142 12.45 18.823 20.331 32.705 20.331 13.88 0 26.563-7.881 32.702-20.331l138.46-280.552 309.605-44.986c13.74-1.999 25.151-11.619 29.443-24.824 4.292-13.2 0.715-27.695-9.229-37.385l-224.035-218.38 52.887-308.356c2.346-13.681-3.28-27.517-14.51-35.676-6.352-4.616-13.874-6.965-21.44-6.965zM114.851 529.293l184.847-180.178c8.596-8.377 12.52-20.454 10.486-32.279l-43.635-254.418 228.479 120.125c10.627 5.585 23.319 5.585 33.945 0l228.479-120.119-43.638 254.412c-2.028 11.834 1.894 23.902 10.489 32.279l184.849 180.178-255.448 37.12c-11.878 1.727-22.149 9.185-27.462 19.952l-114.237 231.478-114.239-231.478c-5.31-10.764-15.584-18.224-27.462-19.952l-255.454-37.12z" />
<glyph unicode="&#xe925;" glyph-name="toboggan" d="M589.923 710.402l-269.996 241.996c-11.368 10.136-28.476 10.136-39.844 0l-269.996-241.996c-20.558-18.232-7.554-52.412 19.922-52.412h539.992c27.478 0 40.48 34.182 19.922 52.412zM570.001-4h-30c0 219.12 0 389.316 0 601.992h-479.992c0-212.638 0-382.882 0-601.992h-30c-16.582 0-30-13.418-30-30s13.418-30 30-30h60c16.582 0 30 13.418 30 30v149.998h60v-149.998c0-16.582 13.418-30 30-30s30 13.418 30 30v30h119.998v-30c0-16.582 13.418-30 30-30s30 13.418 30 30v149.998h60v-149.998c0-16.582 13.418-30 30-30h60c16.582 0 30 13.418 30 30-0.006 16.582-13.424 30-30.006 30zM180.007 175.996h-60v60h60v-60zM360.005 55.998h-119.998v60h119.998v-60zM360.005 175.996h-119.998v60h119.998v-60zM300.005 297.994c-66.182 0-119.998 53.818-119.998 119.998 0 66.182 53.818 119.998 119.998 119.998 66.182 0 119.998-53.818 119.998-119.998s-53.816-119.998-119.998-119.998zM480.003 175.996h-60v60h60v-60zM963.995 55.998h-105.864c-24.082 0-45.732 14.268-55.136 36.358l-66.24 216.54c-24.558 57.326-76.522 96.978-136.756 106.672v-120.464c16.366-5.178 30.052-19.138 37.002-35.464l81.824-250.894c18.956-44.18 62.226-72.742 110.3-72.742h134.868c33.076 0 60 26.924 60 60s-26.922 59.994-59.998 59.994z" />
<glyph unicode="&#xe926;" glyph-name="tree" d="M882.66 209.142l-166.848 174.858h68.188c42.034 0 63.744 50.414 34.896 80.958l-165.316 175.042h66.42c41.756 0 63.702 49.938 35.174 80.662l-208 224.006c-18.97 20.428-51.352 20.458-70.348 0l-208-224.006c-28.414-30.6-6.752-80.662 35.174-80.662h66.42l-165.318-175.042c-28.86-30.56-7.116-80.958 34.898-80.958h68.188l-166.858-174.858c-29.068-30.452-7.48-81.142 34.72-81.142h239.95c0-65.562-22.376-98.52-67.99-135.012-23.56-18.848-10.182-56.988 19.99-56.988h288c30.172 0 43.552 38.138 19.99 56.988-39.536 31.628-67.984 63.33-67.99 134.992v0.020h239.94c42.1 0 63.858 50.618 34.72 81.142z" />
<glyph unicode="&#xe927;" glyph-name="twitter" d="M1000.33 773.612c2.309 6.928 3.464 14.432 3.464 21.939 0 37.527-30.020 68.702-67.547 69.279-0.577 0-1.155 0-1.732 0-1.155 0-2.887 0-4.041 0-10.392-0.577-20.207-3.464-28.867-8.083-2.887-1.155-5.196-2.887-7.505-4.041-1.155-0.577-2.309-1.155-3.464-1.732-17.896-6.928-36.371-13.856-55.423-20.784-31.752 23.092-69.279 40.412-113.734 50.227-5.196 1.155-10.392 2.887-15.588 2.887h-49.072c-5.773 0-12.124-2.309-17.896-3.464-38.68-10.392-79.094-24.824-116.042-55.423-50.227-42.144-80.826-95.835-90.639-157.61-101.031 21.36-184.745 70.434-253.445 152.99-13.279 15.588-32.331 23.092-53.115 23.092v0c-20.207 0-39.835-8.083-53.115-23.671-38.103-45.608-52.536-105.65-40.412-170.889 3.464-17.896 8.66-35.795 15.588-53.691-9.237-10.392-15.011-23.092-16.743-36.948-8.083-65.815 15.588-127.589 66.392-178.97-2.309-9.815-2.887-19.628-0.577-29.444 8.66-45.031 31.752-83.711 66.97-113.734-21.36-4.619-44.455-7.505-68.702-7.505-6.928 0-13.856 0-20.784 0.577-1.732 0-3.464 0-5.196 0-30.020 0-57.155-19.628-65.815-48.495-9.815-30.599 2.887-64.083 30.599-80.247 2.309-1.155 4.619-2.887 6.928-4.041 5.773-3.464 12.7-7.505 19.628-11.547 88.907-47.34 183.589-71.588 280.58-71.588 35.795 0 72.166 3.464 108.538 9.815 118.351 20.784 224.001 75.052 305.983 155.301s139.135 186.477 164.538 305.983c5.773 27.712 8.083 54.847 9.815 80.826 0.577 9.815 1.155 19.052 2.309 28.288 30.020 26.556 56 54.847 78.515 87.175 8.083 11.547 13.279 25.403 13.279 40.412-0.004 21.358-9.241 40.41-23.673 53.113zM876.205 636.207c-5.773-5.196-10.392-15.011-11.547-23.092-4.619-38.103-4.619-77.362-12.7-114.31-46.763-217.073-202.641-370.066-415.097-408.169-32.331-5.773-64.66-8.66-96.414-8.66-86.022 0-168.578 21.36-247.672 63.506-8.083 4.041-15.588 9.237-23.671 13.856 8.66-0.577 17.32-1.155 25.98-1.155 103.342 0 197.445 43.876 232.661 79.671-90.639 13.856-150.682 60.619-162.806 123.547 23.671 1.155 47.34 2.887 71.588 4.041-96.414 46.187-144.909 110.846-136.249 183.589 23.092-5.773 46.763-11.547 69.856-17.32-76.207 81.403-95.835 183.013-44.455 243.632 97.567-116.042 222.848-177.817 375.838-188.209-0.577 4.619-1.155 7.505-1.155 10.392-7.505 69.279 12.7 128.743 67.547 174.353 25.98 21.939 57.155 30.599 89.486 42.144 16.164 0 32.908 0 49.072 0 41.567-11.547 79.094-27.712 110.846-57.155 1.732-1.155 4.619-2.887 7.505-2.887 1.732 0 4.041 0 5.196 0.577 28.867 10.392 57.732 20.784 86.599 31.752 5.196 2.309 10.392 5.196 18.475 9.237-16.164-42.723-42.144-72.743-76.207-96.414 0.577-1.155 1.155-2.887 2.309-4.041 30.599 8.66 61.774 17.32 94.103 26.556-23.086-32.901-49.066-60.613-79.086-85.439z" />
<glyph unicode="&#xe928;" glyph-name="twitter-o" d="M1023.998 765.478c-37.689-16.7-78.129-28.026-120.618-33.083 43.384 25.98 76.594 67.187 92.334 116.139-40.696-24.059-85.616-41.529-133.48-50.999-38.328 40.888-92.846 66.356-153.316 66.356-116.010 0-210.072-94.062-210.072-210.009 0-16.444 1.856-32.505 5.44-47.864-174.559 8.768-329.345 92.399-432.941 219.481-18.109-30.971-28.411-67.059-28.411-105.581 0-72.883 37.113-137.191 93.423-174.815-34.426 1.151-66.804 10.621-95.15 26.363v-2.624c0-101.741 72.435-186.652 168.48-205.978-17.597-4.735-36.153-7.359-55.35-7.359-13.565 0-26.683 1.344-39.544 3.904 26.746-83.505 104.301-144.228 196.188-145.893-71.859-56.31-162.466-89.776-260.879-89.776-16.956 0-33.658 1.024-50.102 2.88 92.975-59.702 203.354-94.511 321.988-94.511 386.423 0 597.648 320.069 597.648 597.648l-0.704 27.195c41.271 29.437 76.976 66.421 105.067 108.526z" />
<glyph unicode="&#xe929;" glyph-name="viber" d="M888.052 860.34c-25.4 23.4-128.2 98-357.4 99 0 0-270.2 16.2-401.8-104.6-73.2-73.2-99-180.6-101.8-313.6s-6.2-382.2 234-449.8h0.2l-0.2-103.2s-1.6-41.8 26-50.2c33.2-10.4 52.8 21.4 84.6 55.6 17.4 18.8 41.4 46.4 59.6 67.4 164.4-13.8 290.6 17.8 305 22.4 33.2 10.8 221 34.8 251.4 284 31.6 257.2-15.2 419.6-99.6 493zM915.852 386.14c-25.8-208-178-221.2-206-230.2-12-3.8-123-31.4-262.4-22.4 0 0-104-125.4-136.4-158-10.6-10.6-22.2-9.6-22 11.4 0 13.8 0.8 171.4 0.8 171.4-0.2 0-0.2 0 0 0-203.6 56.4-191.6 268.6-189.4 379.6s23.2 202 85.2 263.2c111.4 101 340.8 86 340.8 86 193.8-0.8 286.6-59.2 308.2-78.8 71.4-61.2 107.8-207.6 81.2-422.2zM637.852 547.74c0.8-17.2-25-18.4-25.8-1.2-2.2 44-22.8 65.4-65.2 67.8-17.2 1-15.6 26.8 1.4 25.8 55.8-3 86.8-35 89.6-92.4zM678.452 525.14c2 84.8-51 151.2-151.6 158.6-17 1.2-15.2 27 1.8 25.8 116-8.4 177.8-88.2 175.6-185-0.2-17.2-26.2-16.4-25.8 0.6zM772.452 498.34c0.2-17.2-25.8-17.4-25.8-0.2-1.2 163-109.8 251.8-241.6 252.8-17 0.2-17 25.8 0 25.8 147.4-1 266-102.8 267.4-278.4zM749.852 302.14v-0.4c-21.6-38-62-80-103.6-66.6l-0.4 0.6c-42.2 11.8-141.6 63-204.4 113-32.4 25.6-62 55.8-84.8 84.8-20.6 25.8-41.4 56.4-61.6 93.2-42.6 77-52 111.4-52 111.4-13.4 41.6 28.4 82 66.6 103.6h0.4c18.4 9.6 36 6.4 47.8-7.8 0 0 24.8-29.6 35.4-44.2 10-13.6 23.4-35.4 30.4-47.6 12.2-21.8 4.6-44-7.4-53.2l-24-19.2c-12.2-9.8-10.6-28-10.6-28s35.6-134.6 168.6-168.6c0 0 18.2-1.6 28 10.6l19.2 24c9.2 12 31.4 19.6 53.2 7.4 29.4-16.6 66.8-42.4 91.6-65.8 14-11.4 17.2-28.8 7.6-47.2z" />
<glyph unicode="&#xe92a;" glyph-name="warning-o" d="M512 960c-283.006 0-512-229.014-512-512 0-283.006 229.014-512 512-512 283.006 0 512 229.014 512 512 0 283.006-229.014 512-512 512zM512 16c-238.786 0-432 193.23-432 432 0 238.786 193.23 432 432 432 238.786 0 432-193.23 432-432 0-238.786-193.23-432-432-432zM512 702.246c-22.092 0-40-17.908-40-40v-257.586c0-22.092 17.908-40 40-40s40 17.908 40 40v257.586c0 22.092-17.908 40-40 40zM566 261.68c0-29.823-24.177-54-54-54s-54 24.177-54 54c0 29.823 24.177 54 54 54s54-24.177 54-54z" />
<glyph unicode="&#xe92b;" glyph-name="x-o" d="M1011.841 6.869l-441.133 441.133 441.129 441.129c16.212 16.21 16.212 42.496 0 58.708-16.21 16.212-42.496 16.212-58.708 0l-441.129-441.129-441.133 441.129c-16.21 16.212-42.496 16.212-58.708 0-16.212-16.21-16.212-42.496 0-58.708l441.131-441.129-441.131-441.133c-16.212-16.212-16.212-42.496 0-58.708 16.21-16.21 42.496-16.212 58.708 0l441.133 441.133 441.133-441.133c16.21-16.21 42.496-16.212 58.708 0s16.212 42.496 0 58.708z" />
<glyph unicode="&#xe92c;" glyph-name="youtube" d="M845.413 938.239h-666.826c-98.548 0-178.587-106.552-178.587-237.616v-505.747c0-131.064 80.039-237.116 178.587-237.116h666.826c98.548 0 178.587 106.552 178.587 237.116v505.747c0 131.064-80.039 237.616-178.587 237.616zM938.958 187.874c0-79.538-46.022-144.571-102.050-144.571h-644.815c-56.528 0-102.050 64.532-102.050 144.571v521.255c0 79.538 46.022 144.571 102.050 144.571h644.815c56.528 0 102.050-64.532 102.050-144.571v-521.255zM688.337 482.517l-307.15 202.099c-12.506 8.504-29.014 9.005-42.521 2.001s-22.011-21.010-22.011-36.518v-404.698c0-15.007 8.504-29.014 22.011-36.518 6.003-3.501 13.006-5.002 19.509-5.002 8.004 0 16.008 2.502 23.012 7.003l307.15 202.599c11.505 7.504 18.509 20.51 18.509 34.517s-7.003 26.513-18.509 34.517zM399.695 322.439v250.623l190.093-125.561-190.093-125.061z" />
<glyph unicode="&#xe92d;" glyph-name="file-pdf" d="M867.8 764.1l-167.8 167.8c-18 18-42.4 28.2-67.8 28.2h-408.2c-53-0.2-96-43.2-96-96.2v-832c0-53 43-96 96-96h576c53 0 96 43 96 96v664.2c0 25.4-10.2 50-28.2 68zM792.2 703.9h-152.2v152.2l152.2-152.2zM224 31.9v832h320v-208c0-26.6 21.4-48 48-48h208v-576h-576zM724.4 319.3c-24.4 24-94 17.4-128.8 13-34.4 21-57.4 50-73.6 92.6 7.8 32.2 20.2 81.2 10.8 112-8.4 52.4-75.6 47.2-85.2 11.8-8.8-32.2-0.8-77 14-134.2-20-47.8-49.8-112-70.8-148.8-40-20.6-94-52.4-102-92.4-6.6-31.6 52-110.4 152.2 62.4 44.8 14.8 93.6 33 136.8 40.2 37.8-20.4 82-34 111.6-34 51 0 56 56.4 35 77.4zM328.2 163.7c10.2 27.4 49 59 60.8 70-38-60.6-60.8-71.4-60.8-70zM491.4 544.9c14.8 0 13.4-64.2 3.6-81.6-8.8 27.8-8.6 81.6-3.6 81.6zM442.6 271.7c19.4 33.8 36 74 49.4 109.4 16.6-30.2 37.8-54.4 60.2-71-41.6-8.6-77.8-26.2-109.6-38.4zM705.8 281.7s-10-12-74.6 15.6c70.2 5.2 81.8-10.8 74.6-15.6z" />
<glyph unicode="&#xe92e;" glyph-name="label-o" d="M323.65 703.985c8.93-8.516 14.482-20.506 14.482-33.792s-5.553-25.276-14.464-33.774l-0.019-0.018c-8.516-8.93-20.506-14.482-33.792-14.482s-25.276 5.553-33.774 14.464l-0.018 0.019c-4.876 4.779-9.704 9.655-9.704 14.482-3.094 4.562-4.94 10.189-4.94 16.247 0 1.079 0.059 2.144 0.173 3.192l-0.011-0.13c-0.012 0.386-0.019 0.84-0.019 1.296 0 12.887 5.583 24.469 14.462 32.461l0.040 0.035c8.102 9.011 19.799 14.652 32.813 14.652 7.413 0 14.399-1.831 20.53-5.064l-0.24 0.116c4.827 0 9.704-4.876 14.482-9.704zM912.938 394.883l-347.77-347.77c-8.506-8.951-20.499-14.519-33.792-14.519s-25.286 5.568-33.773 14.499l-0.019 0.020-400.92 400.872v415.403h415.403l400.872-400.92c8.951-8.506 14.519-20.499 14.519-33.792s-5.568-25.286-14.499-33.773l-0.020-0.019zM980.57 530.1l-415.403 415.451c-8.045 8.891-19.626 14.452-32.507 14.452-0.452 0-0.902-0.007-1.351-0.020l0.066 0.002h-483.035c-0.822 0.053-1.782 0.083-2.749 0.083-25.189 0-45.608-20.42-45.608-45.608 0-0.967 0.030-1.927 0.089-2.879l-0.006 0.13v-483.035c-0.011-0.362-0.017-0.787-0.017-1.214 0-12.902 5.56-24.506 14.414-32.546l0.036-0.032 415.451-415.403c25.366-26.81 61.196-43.497 100.922-43.497 0.177 0 0.353 0 0.53 0.001h-0.027c1.099-0.033 2.391-0.052 3.688-0.052 38.745 0 73.575 16.762 97.634 43.431l0.103 0.116 347.77 347.77c26.79 25.567 43.447 61.551 43.447 101.425s-16.657 75.858-43.392 101.373l-0.055 0.052z" />
<glyph unicode="&#xe92f;" glyph-name="right-arrow" d="M41.364 406.636h941.272c22.844 0 41.364 18.52 41.364 41.364 0 22.846-18.52 41.364-41.364 41.364h-941.272c-22.846 0-41.364-18.518-41.364-41.364 0-22.844 18.518-41.364 41.364-41.364zM924.136 448l-323.726-323.728c-16.154-16.154-16.154-42.344 0-58.498 16.154-16.152 42.344-16.152 58.498 0l352.976 352.976c16.154 16.154 16.154 42.344 0 58.498l-352.976 352.976c-8.076 8.078-18.664 12.116-29.25 12.116s-21.174-4.038-29.25-12.116c-16.154-16.154-16.154-42.344 0-58.498l323.728-323.726z" />
<glyph unicode="&#xe930;" glyph-name="grid" d="M358.4 38.4h-256v256h256zM409.6 396.8h-358.4c-0.872 0.056-1.89 0.088-2.916 0.088-26.715 0-48.372-21.657-48.372-48.372 0-1.026 0.032-2.044 0.095-3.054l-0.007 0.138v-358.4c-0.056-0.872-0.088-1.89-0.088-2.916 0-26.715 21.657-48.372 48.372-48.372 1.026 0 2.044 0.032 3.054 0.095l-0.138-0.007h358.4c0.872-0.056 1.89-0.088 2.916-0.088 26.715 0 48.372 21.657 48.372 48.372 0 1.026-0.032 2.044-0.095 3.054l0.007-0.138v358.4c0.056 0.872 0.088 1.89 0.088 2.916 0 26.715-21.657 48.372-48.372 48.372-1.026 0-2.044-0.032-3.054-0.095l0.138 0.007zM921.6 38.4h-256v256h256zM972.8 396.8h-358.4c-0.872 0.056-1.89 0.088-2.916 0.088-26.715 0-48.372-21.657-48.372-48.372 0-1.026 0.032-2.044 0.095-3.054l-0.007 0.138v-358.4c-0.056-0.872-0.088-1.89-0.088-2.916 0-26.715 21.657-48.372 48.372-48.372 1.026 0 2.044 0.032 3.054 0.095l-0.138-0.007h358.4c0.872-0.056 1.89-0.088 2.916-0.088 26.715 0 48.372 21.657 48.372 48.372 0 1.026-0.032 2.044-0.095 3.054l0.007-0.138v358.4c0.056 0.872 0.088 1.89 0.088 2.916 0 26.715-21.657 48.372-48.372 48.372-1.026 0-2.044-0.032-3.054-0.095l0.138 0.007zM921.6 601.6h-256v256h256zM972.8 960h-358.4c-0.872 0.056-1.89 0.088-2.916 0.088-26.715 0-48.372-21.657-48.372-48.372 0-1.026 0.032-2.044 0.095-3.054l-0.007 0.138v-358.4c-0.056-0.872-0.088-1.89-0.088-2.916 0-26.715 21.657-48.372 48.372-48.372 1.026 0 2.044 0.032 3.054 0.095l-0.138-0.007h358.4c0.872-0.056 1.89-0.088 2.916-0.088 26.715 0 48.372 21.657 48.372 48.372 0 1.026-0.032 2.044-0.095 3.054l0.007-0.138v358.4c0.056 0.872 0.088 1.89 0.088 2.916 0 26.715-21.657 48.372-48.372 48.372-1.026 0-2.044-0.032-3.054-0.095l0.138 0.007zM358.4 601.6h-256v256h256zM409.6 960h-358.4c-0.872 0.056-1.89 0.088-2.916 0.088-26.715 0-48.372-21.657-48.372-48.372 0-1.026 0.032-2.044 0.095-3.054l-0.007 0.138v-358.4c-0.056-0.872-0.088-1.89-0.088-2.916 0-26.715 21.657-48.372 48.372-48.372 1.026 0 2.044 0.032 3.054 0.095l-0.138-0.007h358.4c0.872-0.056 1.89-0.088 2.916-0.088 26.715 0 48.372 21.657 48.372 48.372 0 1.026-0.032 2.044-0.095 3.054l0.007-0.138v358.4c0.056 0.872 0.088 1.89 0.088 2.916 0 26.715-21.657 48.372-48.372 48.372-1.026 0-2.044-0.032-3.054-0.095l0.138 0.007z" />
<glyph unicode="&#xe931;" glyph-name="list" d="M15.531 176.748c-5.119-5.119-10.238-10.289-10.238-15.407-3.314-4.822-5.293-10.787-5.293-17.214 0-1.148 0.063-2.283 0.186-3.398l-0.013 0.138c-0.011-0.375-0.017-0.819-0.017-1.262 0-13.682 5.917-25.982 15.333-34.48l0.040-0.037c8.54-9.456 20.845-15.375 34.532-15.375 0.456 0 0.912 0.006 1.365 0.019l-0.066-0.001c0.387-0.012 0.842-0.018 1.298-0.018 13.687 0 25.992 5.917 34.496 15.333l0.037 0.040c9.468 9.030 15.356 21.743 15.356 35.831s-5.887 26.8-15.336 35.812l-0.019 0.019c-9.030 9.468-21.743 15.356-35.831 15.356s-26.8-5.887-35.812-15.336l-0.019-0.019zM97.43 468.411c0 5.119-5.119 5.119-5.119 10.238 0.001 0.031 0.001 0.069 0.001 0.106 0 2.769-2.245 5.013-5.013 5.013-0.038 0-0.075-0.001-0.112-0.001h0.005c-8.586 9.515-20.96 15.469-34.726 15.469-7.887 0-15.317-1.954-21.833-5.405l0.253 0.122c-5.119-5.067-10.238-5.067-15.356-10.186l-5.119-5.119c0-5.119-5.119-5.119-5.119-10.238s0-5.119-5.119-10.238v-10.238c-0.012-0.387-0.018-0.842-0.018-1.298 0-13.687 5.917-25.992 15.333-34.496l0.040-0.037c8.54-9.456 20.845-15.375 34.532-15.375 0.456 0 0.912 0.006 1.365 0.019l-0.066-0.001c0.387-0.012 0.842-0.018 1.298-0.018 13.687 0 25.992 5.917 34.496 15.333l0.037 0.040c9.456 8.54 15.375 20.845 15.375 34.532 0 0.456-0.006 0.912-0.019 1.365l0.001-0.066v10.238c0 5.119-5.119 5.119-5.119 10.238zM71.837 801.024c-6.253 3.317-13.672 5.263-21.545 5.263-13.782 0-26.172-5.967-34.724-15.459l-0.037-0.042c-5.119-5.119-10.238-10.238-10.238-15.356-3.311-4.835-5.289-10.811-5.289-17.249 0-1.136 0.061-2.258 0.181-3.363l-0.012 0.137c-0.107-0.968-0.169-2.089-0.169-3.226 0-6.438 1.977-12.414 5.357-17.354l-0.068 0.106c5.119-5.119 5.119-10.238 10.238-15.356l5.119-5.119c5.119 0 5.119-5.067 10.238-5.067s5.119 0 10.238-5.169h10.238c0.364-0.010 0.793-0.016 1.223-0.016 13.71 0 26.038 5.915 34.573 15.333l0.035 0.039c9.456 8.54 15.375 20.845 15.375 34.532 0 0.456-0.006 0.912-0.019 1.365l0.001-0.066c0.012 0.387 0.018 0.842 0.018 1.298 0 13.687-5.917 25.992-15.333 34.496l-0.040 0.037c-5.119 5.119-10.238 10.238-15.356 10.238zM972.725 192.053h-665.43c-28.255 0-51.162-22.906-51.162-51.162s22.906-51.162 51.162-51.162v0h665.43c28.255 0 51.162 22.906 51.162 51.162s-22.906 51.162-51.162 51.162v0zM972.725 499.072h-665.43c-0.883 0.057-1.915 0.090-2.954 0.090-26.687 0-48.32-21.634-48.32-48.32 0-1.023 0.031-2.037 0.095-3.043l-0.007 0.138c-0.056-0.871-0.088-1.889-0.088-2.915 0-26.708 21.651-48.36 48.36-48.36 1.025 0 2.043 0.032 3.053 0.095l-0.139-0.007h665.43c0.871-0.056 1.889-0.088 2.915-0.088 26.708 0 48.36 21.651 48.36 48.36 0 1.025-0.032 2.043-0.095 3.053l0.007-0.139c0.056 0.868 0.087 1.883 0.087 2.905 0 26.687-21.634 48.32-48.32 48.32-1.039 0-2.071-0.033-3.094-0.097l0.14 0.007zM256.109 754.955c-0.056 0.871-0.088 1.889-0.088 2.915 0 26.708 21.651 48.36 48.36 48.36 1.025 0 2.043-0.032 3.053-0.095l-0.139 0.007h665.43c0.871 0.056 1.889 0.088 2.915 0.088 26.708 0 48.36-21.651 48.36-48.36 0-1.025-0.032-2.043-0.095-3.053l0.007 0.139c0.056-0.871 0.088-1.889 0.088-2.915 0-26.708-21.651-48.36-48.36-48.36-1.025 0-2.043 0.032-3.053 0.095l0.139-0.007h-665.43c-0.871-0.056-1.889-0.088-2.915-0.088-26.708 0-48.36 21.651-48.36 48.36 0 1.025 0.032 2.043 0.095 3.053l-0.007-0.139z" />
<glyph unicode="&#xe932;" glyph-name="filter" d="M573.417 458.457c-6.192-10.251-9.977-22.572-10.29-35.752l-0.002-0.088v-353.28l-102.298 51.2v302.080c-0.24 11.56-4.043 22.186-10.349 30.878l0.109-0.158-337.664 404.48h803.226zM1069.596 929.497c-7.465 18.165-25.021 30.722-45.51 30.722-0.164 0-0.329-0.001-0.493-0.002h-1023.207c-0.139 0.001-0.303 0.002-0.468 0.002-20.489 0-38.044-12.557-45.391-30.396l-0.119-0.326c-3.343-6.303-5.306-13.78-5.306-21.715 0-11.202 3.912-21.491 10.445-29.574l-0.070 0.089 399.053-471.040v-317.44c-0.002-0.143-0.002-0.312-0.002-0.482 0-20.498 12.528-38.071 30.345-45.478l0.326-0.12 204.646-102.4c5.12-5.12 10.24-5.12 20.429-5.12 1.73-0.277 3.723-0.436 5.754-0.436 7.337 0 14.19 2.067 20.011 5.65l-0.165-0.095c15.432 9.62 25.55 26.501 25.55 45.744 0 0.118 0 0.236-0.001 0.354v-0.018 419.84l399.053 471.040c6.491 7.994 10.422 18.294 10.422 29.514 0 7.925-1.962 15.392-5.426 21.942l0.123-0.256z" />
<glyph unicode="&#xe933;" glyph-name="x-square" d="M701.439 565.76l-117.76-117.76 117.76-117.76c9.471-9.032 15.36-21.748 15.36-35.84s-5.889-26.808-15.34-35.821l-0.020-0.019c-9.032-9.471-21.748-15.36-35.84-15.36s-26.808 5.889-35.821 15.34l-0.019 0.020-117.76 117.76-117.76-117.76c-9.032-9.471-21.748-15.36-35.84-15.36s-26.808 5.889-35.821 15.34l-0.019 0.020c-9.471 9.032-15.36 21.748-15.36 35.84s5.889 26.808 15.34 35.821l0.020 0.019 117.76 117.76-117.76 117.76c-9.151 9.169-14.809 21.825-14.809 35.804 0 27.993 22.693 50.685 50.685 50.685 13.978 0 26.635-5.659 35.805-14.81l117.759-117.759 117.76 117.76c9.176 9.194 21.862 14.882 35.876 14.882 27.993 0 50.685-22.693 50.685-50.685 0-14.014-5.688-26.7-14.881-35.875l-0.001-0.001zM921.599 89.6c0.056-0.872 0.088-1.89 0.088-2.916 0-26.715-21.657-48.372-48.372-48.372-1.026 0-2.044 0.032-3.054 0.095l0.138-0.007h-716.8c-0.872-0.056-1.89-0.088-2.916-0.088-26.715 0-48.372 21.657-48.372 48.372 0 1.026 0.032 2.044 0.095 3.054l-0.007-0.138v716.8c-0.056 0.872-0.088 1.89-0.088 2.916 0 26.715 21.657 48.372 48.372 48.372 1.026 0 2.044-0.032 3.054-0.095l-0.138 0.007h716.8c0.872 0.056 1.89 0.088 2.916 0.088 26.715 0 48.372-21.657 48.372-48.372 0-1.026-0.032-2.044-0.095-3.054l0.007 0.138zM870.399 960h-716.8c-0.823 0.016-1.794 0.025-2.767 0.025-83.317 0-150.858-67.542-150.858-150.858 0-0.973 0.009-1.944 0.028-2.912l-0.002 0.145v-716.8c-0.016-0.823-0.025-1.794-0.025-2.767 0-83.317 67.542-150.858 150.858-150.858 0.973 0 1.944 0.009 2.912 0.028l-0.145-0.002h716.8c0.823-0.016 1.794-0.025 2.767-0.025 83.317 0 150.858 67.542 150.858 150.858 0 0.973-0.009 1.944-0.028 2.912l0.002-0.145v716.8c0.016 0.823 0.025 1.794 0.025 2.767 0 83.317-67.542 150.858-150.858 150.858-0.973 0-1.944-0.009-2.912-0.028l0.145 0.002z" />
<glyph unicode="&#xe934;" glyph-name="booked" d="M1021.711 350.852l-170.711 341.424c-4.353 8.62-13.956 13.402-23.26 11.395l-639.999-128.034c-0.512-0.086-0.982-0.214-1.45-0.342-4.439-1.152-8.152-3.671-10.925-6.956-0.726-0.854-1.366-1.75-1.921-2.689-0.342-0.554-0.598-1.11-0.896-1.622l-170.627-341.21c-0.426-0.81-0.384-1.706-0.682-2.561-0.47-1.366-0.938-2.689-1.11-4.183-0.214-1.494-0.128-2.945 0-4.439 0.086-0.854-0.17-1.706 0-2.561 0.086-0.47 0.384-0.854 0.512-1.322 0.298-1.11 0.768-2.091 1.238-3.159 0.64-1.408 1.322-2.731 2.219-3.927 0.598-0.854 1.28-1.578 2.049-2.305 1.194-1.194 2.475-2.177 3.927-3.073 0.554-0.342 0.896-0.854 1.45-1.152 0.298-0.17 0.682-0.086 0.982-0.214 2.647-1.194 5.463-2.007 8.536-2.007 1.366 0 2.775 0.128 4.225 0.426l294.392 58.854 23.728-47.501c4.311-8.578 13.742-13.316 23.26-11.395l640.169 128.034c6.53 1.28 12.077 5.591 15.022 11.565 2.945 5.98 2.859 12.977-0.128 18.953zM59.624 242.75l132.131 264.22 108.103-216.207-240.233-48.013zM622.716 405.737l-213.39-42.677c-1.408-0.298-2.817-0.426-4.183-0.426-9.945 0-18.863 7-20.912 17.157-2.305 11.565 5.207 22.79 16.73 25.095l213.39 42.677c11.097 2.433 22.748-5.121 25.095-16.73 2.347-11.567-5.165-22.79-16.73-25.095zM793.427 533.771l-426.779-85.357c-1.408-0.298-2.817-0.426-4.183-0.426-9.945 0-18.863 7-20.912 17.157-2.305 11.565 5.207 22.79 16.73 25.095l426.779 85.357c11.053 2.391 22.748-5.163 25.095-16.73s-5.165-22.79-16.73-25.095z" />
<glyph unicode="&#xe935;" glyph-name="sold" d="M811.518 847.589h-223.088v89.761c0 12.509-10.14 22.649-22.649 22.649h-107.556c-12.509 0-22.649-10.14-22.649-22.649v-89.761h-223.091c-53.655 0-97.306-43.651-97.306-97.303v-302.058c0-53.655 43.651-97.303 97.306-97.303h223.088v-392.275c0-12.509 10.14-22.649 22.649-22.649h107.556c12.509 0 22.649 10.14 22.649 22.649v392.272h223.088c53.655 0 97.306 43.651 97.306 97.303v302.061c0 53.652-43.651 97.303-97.303 97.303zM863.523 448.224c0-28.677-23.328-52.005-52.008-52.005h-599.030c-28.677 0-52.008 23.328-52.008 52.005v302.061c0 28.677 23.328 52.005 52.008 52.005h599.033c28.677 0 52.008-23.328 52.008-52.005v-302.061zM480.871 914.7h62.258v-67.112h-62.258v67.112zM543.129-18.704h-62.258v369.626h62.258v-369.626zM218.438 778.057c-4.239 4.206-10.063 6.633-16.016 6.633s-11.81-2.427-16.016-6.633c-4.206-4.206-6.633-10.063-6.633-16.016s2.427-11.777 6.633-16.016c4.206-4.206 10.063-6.633 16.016-6.633s11.777 2.427 16.016 6.633c4.206 4.239 6.633 10.063 6.633 16.016s-2.427 11.81-6.633 16.016zM821.577 784.689c-5.953 0-11.777-2.427-16.016-6.633-4.206-4.206-6.633-10.063-6.633-16.016s2.427-11.81 6.633-16.016c4.239-4.206 10.063-6.633 16.016-6.633s11.81 2.427 16.016 6.633c4.239 4.239 6.633 10.063 6.633 16.016s-2.394 11.81-6.633 16.016c-4.206 4.206-10.063 6.633-16.016 6.633zM288.614 649.634h41.367c12.509 0 22.649 10.14 22.649 22.649s-10.14 22.649-22.649 22.649h-41.367c-35.3 0-64.015-28.716-64.015-64.015s28.716-64.015 64.015-64.015c10.321 0 18.718-8.396 18.718-18.718s-8.396-18.718-18.718-18.718h-41.367c-12.509 0-22.649-10.14-22.649-22.649s10.14-22.649 22.649-22.649h41.367c35.3 0 64.015 28.716 64.015 64.015s-28.716 64.015-64.015 64.015c-10.321 0-18.718 8.396-18.718 18.718s8.396 18.718 18.718 18.718zM442.507 694.932h-9.936c-32.559 0-59.049-26.489-59.049-59.049v-92.673c0-32.559 26.489-59.049 59.049-59.049h9.936c32.559 0 59.049 26.489 59.049 59.049v92.673c0 32.559-26.489 59.049-59.049 59.049zM456.258 543.214c0-7.581-6.167-13.751-13.751-13.751h-9.936c-7.581 0-13.751 6.167-13.751 13.751v92.673c0 7.581 6.167 13.751 13.751 13.751h9.936c7.581 0 13.751-6.167 13.751-13.751v-92.673zM721.78 694.932h-27.758c-12.509 0-22.649-10.14-22.649-22.649v-165.469c0-12.509 10.14-22.649 22.649-22.649h27.758c42.803 0 77.624 34.821 77.624 77.624v55.519c0 42.8-34.821 77.624-77.624 77.624zM754.107 561.789c0-17.825-14.502-32.326-32.326-32.326h-5.109v120.172h5.109c17.825 0 32.326-14.502 32.326-32.326v-55.519zM627.829 529.463h-45.003c-8.315 0-15.084 6.766-15.084 15.084v127.736c0 12.509-10.14 22.649-22.649 22.649s-22.649-10.14-22.649-22.649v-127.736c0-33.294 27.088-60.382 60.382-60.382h45.003c12.509 0 22.649 10.14 22.649 22.649s-10.14 22.649-22.649 22.649z" />
<glyph unicode="&#xe936;" glyph-name="left-arrow-o" d="M245.064 411.452l460.488-460.335c20.206-20.155 52.943-20.155 73.2 0 20.206 20.155 20.206 52.892 0 73.047l-423.963 423.81 423.912 423.81c20.206 20.155 20.206 52.892 0 73.098-20.206 20.155-52.994 20.155-73.2 0l-460.488-460.335c-19.9-19.947-19.9-53.198 0.051-73.093z" />
<glyph unicode="&#xe937;" glyph-name="up-arrow-o" d="M475.453 714.936l-460.335-460.488c-20.155-20.206-20.155-52.943 0-73.2 20.155-20.206 52.892-20.206 73.047 0l423.81 423.963 423.81-423.912c20.155-20.206 52.892-20.206 73.098 0 20.155 20.206 20.155 52.994 0 73.2l-460.335 460.488c-19.947 19.9-53.198 19.9-73.093-0.051z" />
<glyph unicode="&#xe938;" glyph-name="finger-up" d="M862.617 66.279c-4.163-21.374-22.735-37.286-45.023-37.286-0.748 0-1.492 0.018-2.231 0.053l0.104-0.004h-485.516v456.145l169.705 377.065c37.924-12.534 64.992-47.218 65.999-88.366l0.002-0.117v-186.182c-0.040-0.708-0.063-1.536-0.063-2.37 0-24.45 19.82-44.27 44.27-44.27 1.019 0 2.031 0.034 3.033 0.102l-0.136-0.007h278.109c13.52-1.491 25.181-8.414 32.917-18.504l0.084-0.114c6.065-7.447 9.738-17.051 9.738-27.513 0-1.77-0.105-3.515-0.309-5.23l0.020 0.207zM235.697 29.043h-94.255c-0.877-0.062-1.899-0.097-2.931-0.097-24.457 0-44.283 19.826-44.283 44.283 0 0.83 0.023 1.655 0.068 2.474l-0.005-0.114v325.818c-0.041 0.713-0.064 1.547-0.064 2.386 0 24.443 19.815 44.258 44.258 44.258 1.040 0 2.072-0.036 3.095-0.107l-0.138 0.008h94.255zM994.574 578.279c-22.937 28.997-55.783 49.275-93.355 55.727l-0.899 0.128h-240.407v139.636c-0.99 103.037-84.747 186.183-187.924 186.183-0.222 0-0.444 0-0.666-0.001h0.034c-1.007 0.088-2.18 0.137-3.363 0.137-18.038 0-33.369-11.59-38.952-27.729l-0.087-0.289-174.406-391.028h-113.105c-1.015 0.027-2.21 0.042-3.408 0.042-76.219 0-138.007-61.788-138.007-138.007 0-0.588 0.004-1.174 0.011-1.76l-0.001 0.089v-325.818c-0.006-0.497-0.010-1.084-0.010-1.671 0-76.219 61.788-138.007 138.007-138.007 1.198 0 2.393 0.015 3.584 0.046l-0.176-0.004h674.025c69.531 0.673 127.367 49.925 141.236 115.411l0.169 0.953 65.955 418.909c0.728 5.52 1.143 11.903 1.143 18.384 0 33.413-11.040 64.247-29.671 89.054l0.275-0.383z" />
<glyph unicode="&#xe939;" glyph-name="share" d="M1024 453.998l-433.592 433.594v-288.776c-326.072 0-590.408-264.336-590.408-590.408 119.786 218.342 357.448 330.924 590.408 302.066v-290.068l433.592 433.592z" />
<glyph unicode="&#xe93a;" glyph-name="lock-o" d="M884.363 75.648c0.051-0.792 0.080-1.718 0.080-2.651 0-24.287-19.688-43.975-43.975-43.975-0.933 0-1.858 0.029-2.776 0.086l0.126-0.006h-651.636c-0.792-0.051-1.718-0.080-2.651-0.080-24.287 0-43.975 19.688-43.975 43.975 0 0.933 0.029 1.858 0.086 2.776l-0.006-0.126v325.818c-0.051 0.792-0.080 1.718-0.080 2.651 0 24.287 19.688 43.975 43.975 43.975 0.933 0 1.858-0.029 2.776-0.086l-0.126 0.006h651.636c0.792 0.051 1.718 0.080 2.651 0.080 24.287 0 43.975-19.688 43.975-43.975 0-0.933-0.029-1.858-0.086-2.776l0.006 0.126zM325.818 680.739c0 102.825 83.356 186.182 186.182 186.182s186.182-83.356 186.182-186.182v0-139.636h-372.364zM837.818 541.103h-46.545v139.636c0 154.238-125.035 279.273-279.273 279.273s-279.273-125.035-279.273-279.273v0-139.636h-46.545c-0.749 0.015-1.631 0.023-2.516 0.023-75.742 0-137.144-61.401-137.144-137.144 0-0.885 0.008-1.767 0.025-2.648l-0.002 0.132v-325.818c-0.015-0.749-0.023-1.631-0.023-2.516 0-75.742 61.401-137.144 137.144-137.144 0.885 0 1.767 0.008 2.648 0.025l-0.132-0.002h651.636c0.749-0.015 1.631-0.023 2.516-0.023 75.742 0 137.144 61.401 137.144 137.144 0 0.885-0.008 1.767-0.025 2.648l0.002-0.132v325.818c0.015 0.749 0.023 1.631 0.023 2.516 0 75.742-61.401 137.144-137.144 137.144-0.885 0-1.767-0.008-2.648-0.025l0.132 0.002z" />
<glyph unicode="&#xe93b;" glyph-name="right-arrow-end-o" d="M699.606 484.537l-460.433 460.277c-9.36 9.381-22.298 15.179-36.598 15.179-28.553 0-51.702-23.143-51.702-51.702 0-14.258 5.767-27.166 15.106-36.521l423.91-423.755-423.862-423.757c-9.344-9.355-15.123-22.277-15.123-36.545 0-28.564 23.157-51.721 51.721-51.721 14.295 0 27.235 5.799 36.596 15.175l460.434 460.277c9.225 9.401 14.919 22.295 14.919 36.521 0 14.247-5.714 27.161-14.973 36.575l0.010-0.010zM813.595 959.928h25.513c18.785 0 34.011-15.226 34.011-34.011v-955.844c0-18.785-15.226-34.011-34.011-34.011h-25.513c-18.785 0-34.011 15.226-34.011 34.011v955.844c0 18.785 15.226 34.011 34.011 34.011z" />
<glyph unicode="&#xe93c;" glyph-name="left-arrow-end-o" d="M324.369 411.458l460.489-460.336c9.361-9.38 22.303-15.183 36.6-15.183 28.556 0 51.706 23.15 51.706 51.706 0 14.259-5.772 27.17-15.107 36.524l-423.963 423.809 423.913 423.81c9.345 9.358 15.124 22.278 15.124 36.549 0 28.566-23.158 51.724-51.724 51.724-14.296 0-27.237-5.8-36.599-15.175l-460.49-460.337c-9.225-9.402-14.919-22.296-14.919-36.521 0-14.25 5.714-27.165 14.976-36.58l-0.007 0.007zM210.366-63.992h-25.513c-18.787 0-34.017 15.23-34.017 34.017v955.964c0 18.787 15.23 34.017 34.017 34.017h25.513c18.787 0 34.017-15.23 34.017-34.017v-955.964c0-18.787-15.23-34.017-34.017-34.017z" />
<glyph unicode="&#xe93d;" glyph-name="star-solid" horiz-adv-x="1152" d="M518.6 924.4l-130.6-264.8-292.2-42.6c-52.4-7.6-73.4-72.2-35.4-109.2l211.4-206-50-291c-9-52.6 46.4-92 92.8-67.4l261.4 137.4 261.4-137.4c46.4-24.4 101.8 14.8 92.8 67.4l-50 291 211.4 206c38 37 17 101.6-35.4 109.2l-292.2 42.6-130.6 264.8c-23.4 47.2-91.2 47.8-114.8 0z" />
<glyph unicode="&#xe93e;" glyph-name="star-regular" horiz-adv-x="1152" d="M1056.2 617l-292.2 42.6-130.6 264.8c-23.4 47.2-91.2 47.8-114.8 0l-130.6-264.8-292.2-42.6c-52.4-7.6-73.4-72.2-35.4-109.2l211.4-206-50-291c-9-52.6 46.4-92 92.8-67.4l261.4 137.4 261.4-137.4c46.4-24.4 101.8 14.8 92.8 67.4l-50 291 211.4 206c38 37 17 101.6-35.4 109.2zM777.2 335.4l47.4-276.8-248.6 130.6-248.6-130.6 47.4 276.8-201.2 196 278 40.4 124.4 252 124.4-252 278-40.4-201.2-196z" />
<glyph unicode="&#xe93f;" glyph-name="share-stroke" d="M1024 476.6l-476.714 476.714v-312.304c-142.82-7.488-276.030-66.674-377.916-168.56-109.22-109.218-169.37-254.432-169.37-408.894v-120.872l58.138 105.97c90.708 165.342 264.346 268.054 453.146 268.054 11.972 0 24.008-0.424 36.002-1.264v-315.558l476.714 476.714zM511.284 378.668c-169.086 0-327.322-73.584-435.878-197.77 53.268 228.354 258.512 398.966 502.858 398.966h30.978v223.874l327.136-327.136-327.136-327.136v221.472l-27.17 3.366c-23.378 2.894-47.194 4.364-70.788 4.364z" />
</font>
</defs>
</svg>
